<svg width="27" height="27" viewBox="0 0 27 27" fill="none" xmlns="http://www.w3.org/2000/svg">
<path d="M13.5 2.18701C11.0393 2.1898 8.68022 3.16854 6.94025 4.90851C5.20028 6.64848 4.22154 9.00758 4.21875 11.4683C4.21875 19.4101 12.6562 25.4081 13.0159 25.6591C13.1578 25.7585 13.3268 25.8118 13.5 25.8118C13.6732 25.8118 13.8422 25.7585 13.9841 25.6591C14.3438 25.4081 22.7812 19.4101 22.7812 11.4683C22.7785 9.00758 21.7997 6.64848 20.0598 4.90851C18.3198 3.16854 15.9607 2.1898 13.5 2.18701ZM13.5 8.09326C14.1675 8.09326 14.82 8.2912 15.375 8.66205C15.9301 9.0329 16.3626 9.56 16.6181 10.1767C16.8735 10.7934 16.9404 11.472 16.8102 12.1267C16.6799 12.7814 16.3585 13.3827 15.8865 13.8547C15.4145 14.3267 14.8131 14.6482 14.1584 14.7784C13.5037 14.9086 12.8251 14.8418 12.2084 14.5864C11.5917 14.3309 11.0646 13.8983 10.6938 13.3433C10.3229 12.7883 10.125 12.1358 10.125 11.4683C10.125 10.5732 10.4806 9.71471 11.1135 9.08178C11.7464 8.44884 12.6049 8.09326 13.5 8.09326Z" fill="white"/>
</svg>
